<svg width="322" height="322" viewBox="0 0 322 322" fill="none" xmlns="http://www.w3.org/2000/svg">
<path d="M74.0775 286.119C73.8039 284.099 72.2189 282.9 71.0522 281.493C61.8881 270.463 57.0526 257.88 57.125 243.471C57.1733 235.297 57.1009 227.131 57.0848 218.957C57.7123 215.208 58.3399 211.459 58.9594 207.71C59.6836 207.775 60.2307 207.509 60.6732 206.914C65.1708 200.856 71.6637 199.15 78.7038 198.853C84.545 198.611 90.0322 197.292 95.3183 194.758C102.326 191.411 109.736 189.874 117.549 190.727C129.432 192.022 135.893 203.728 130.414 214.026C130.036 214.734 129.714 215.482 128.813 215.691C129.07 211.475 126.737 208.933 123.229 207.26C113.043 202.384 100.741 210.22 100.653 221.62C100.645 222.658 100.387 223.881 101.634 224.428C102.769 224.927 103.71 224.267 104.531 223.559C106.598 221.789 107.741 219.303 109.374 217.187C112.311 213.382 114.507 212.915 118.667 215.305C121.338 216.842 123.889 218.62 127.212 218.072C123.39 225.096 117.026 229.102 110.106 232.425C107.821 233.519 105.384 234.308 103.082 235.386C100.572 236.56 98.4803 238.33 97.9251 241.178C96.9918 246.029 94.0712 249.61 90.877 253.085C86.8622 257.454 85.6634 262.562 86.9105 268.339C88.2219 274.405 93.3391 278.757 99.4056 279.031C100.725 279.087 101.361 278.307 102.077 277.558C105.182 274.332 108.908 272.393 113.421 272.297C117.613 272.208 121.644 271.412 125.587 270.02C127.437 269.36 129.32 269.473 131.074 270.286C135.467 272.313 139.844 272.056 144.357 270.688C148.541 269.425 152.476 269.932 156.177 272.57C158.108 273.954 160.336 275.048 162.581 275.837C168.318 277.848 170.691 282.168 171.013 287.8C171.335 293.327 168.149 298.267 162.581 300.19C155.396 302.675 148.083 304.96 140.407 305.403C134.767 305.725 129.255 306.553 123.889 308.323C123.068 308.766 122.264 309.063 121.25 308.886C112.737 307.43 104.563 304.856 96.6137 301.517C96.3562 300.037 95.3827 299.876 94.1517 300.173L94.1999 300.206C94.0793 299.063 93.3149 299.216 92.5425 299.377L92.5827 299.409C92.4621 298.275 91.7379 298.355 90.9334 298.581L90.9736 298.605C90.8609 297.47 90.2173 297.39 89.3323 297.776L89.3483 297.792C89.5656 296.408 88.5277 297.1 87.9806 296.963C86.9105 296.207 85.8323 295.451 84.7623 294.695C84.1266 293.689 83.6037 292.522 82.0428 292.989L82.0911 293.021C81.8255 291.67 81.2302 290.801 79.6612 291.388L79.6532 291.38C79.5888 289.272 78.2854 288.588 76.4027 288.588C74.6568 288.709 75.0349 286.794 74.0775 286.119Z" fill="#6CBF46"/>
<path d="M162.597 120.058C162.605 115.295 163.635 110.589 162.661 105.754C160.706 96.0593 154.632 89.4622 145.226 87.6521C143.738 87.3625 142.893 86.7993 142.29 85.3833C140.769 81.8113 139.216 78.2312 136.794 75.1499C135.37 73.3397 136.489 72.8007 138.041 72.5915C161.688 69.3413 182.583 74.1362 198.304 93.5572C199.817 95.4318 201.498 96.5661 203.655 97.4591C216.504 102.777 228.041 110.243 238.839 118.956C240.738 120.484 241.019 122.053 240.456 124.201C237.198 136.72 232.306 148.538 225.587 159.616C224.268 161.788 223.375 161.917 221.331 160.445C203.357 147.476 182.929 140.018 161.768 134.274C161.398 134.169 161.06 133.96 160.401 133.662C163.901 130.179 166.177 126.422 163.225 121.603L163.361 121.667C163.458 120.927 163.852 120.042 162.541 119.994L162.597 120.058ZM197.242 95.3594C194.563 92.8814 191.586 92.8654 188.569 93.163C188.134 93.2033 187.483 93.6377 187.386 94.0158C187.177 94.7962 187.901 95.2548 188.513 95.3755C191.288 95.9145 194.096 96.8799 197.242 95.3594Z" fill="#FBC62F"/>
<path d="M109.608 139.254C109.825 140.42 109.052 140.943 108.2 141.402C97.3298 147.235 88.415 155.553 79.6934 164.065C77.4406 166.261 75.8797 166.342 73.2568 164.717C63.3846 158.611 54.5504 151.37 46.9391 142.568C44.8713 140.171 44.8552 138.61 47.1965 136.695C48.1218 135.939 48.8218 134.926 49.6505 134.049C55.2745 128.127 59.8204 121.699 63.3444 114.105C70.2879 99.1245 82.2117 88.6899 97.378 82.0607C98.0941 81.747 98.8021 81.2562 99.6952 81.5941C100.403 82.5756 99.8803 83.6456 99.7757 84.6513C98.8826 92.7608 101.892 99.382 107.709 104.756C109.809 106.695 110.806 108.328 109.76 111.273C108.883 113.751 108.811 116.518 108.385 119.157C105.536 126.052 105.335 132.786 109.608 139.254ZM65.1547 120.388C66.957 119.728 68.7431 118.779 69.5396 116.792C69.8856 115.915 68.9201 115.746 68.2765 115.867C66.2087 116.245 64.4708 117.202 63.7708 119.302C63.5134 120.066 64.2616 120.396 65.1547 120.388Z" fill="#FBC62F"/>
<path d="M240.834 234.621C240.633 234.798 240.416 234.967 240.239 235.16C238.968 236.576 239.048 239.754 236.666 239.4C234.325 239.054 234.044 236.102 233.722 234.139C232.788 228.539 229.892 224.364 225.732 220.663C220.486 215.997 218.974 210.092 221.806 203.559C224.614 197.091 224.517 191.226 219.786 185.602C217.485 182.875 217.252 179.198 216.464 175.811C215.675 172.424 214.991 168.916 211.797 166.801C211.113 166.35 210.212 165.441 209.311 166.39C208.659 167.082 209.086 168.015 209.528 168.611C211.877 171.756 212.207 174.733 209.689 178.088C208.563 179.592 209.327 181.692 209.713 183.551C210.872 189.158 207.943 191.942 202.504 190.148C198.578 188.852 194.716 188.764 190.661 189.11C184.634 189.625 182.72 187.839 182.052 181.813C181.754 179.158 181.545 176.487 181.231 173.84C180.821 170.421 178.64 169.11 175.414 169.005C171.85 168.892 168.591 170.244 165.212 170.992C158.928 172.392 155.975 170.694 154.809 164.459C153.336 156.631 153.352 148.739 154.527 140.871C155.018 137.556 157.528 136.124 161.575 137.194C166.869 138.594 172.172 140.075 177.297 141.989C187.829 145.923 197.974 150.783 208.112 155.642C221.098 161.869 228.251 172.794 232.595 185.996C236.634 198.265 238.268 211.009 240.022 223.728C240.134 227.373 238.919 231.122 240.85 234.629L240.834 234.621Z" fill="#6CBF46"/>
<path d="M163.225 121.595C162.726 129.342 160.811 131.708 152.998 133.606C151.542 133.96 151.116 134.757 150.553 135.843C146.361 143.936 139.2 147.573 130.301 146.036C128.797 145.779 127.373 145.939 125.908 146.012C119.769 146.301 114.516 144.652 110.911 139.302C107.604 132.802 108.159 125.995 109.334 119.141C110.155 116.213 110.573 113.147 112.375 109.921C113.92 113.606 111.16 116.526 112.078 119.768C114.001 119.189 114.644 116.084 117.79 116.76C115.964 119.68 114.419 122.431 112.601 124.99C110.863 127.444 110.734 129.197 113.968 130.251C114.459 130.412 114.942 130.71 114.821 131.748C110.509 131.217 111.531 133.582 112.577 136.108C114.644 141.136 118.812 142.866 123.76 143.196C127.349 143.437 130.961 143.47 134.55 143.365C141.051 143.172 145.789 140.131 148.26 134.041C149.056 132.078 149.981 131.056 152.266 130.983C153.94 130.927 155.742 130.316 157.198 129.463C159.829 127.934 161.245 125.44 160.529 122.359C159.773 119.141 157.19 117.894 154.141 117.95C151.743 117.991 149.37 118.602 146.972 118.859C141.783 119.415 139.103 117.902 137.518 112.994C136.859 110.967 135.692 111.112 134.204 111.144C127.389 111.305 120.872 109.889 114.765 106.936C107.467 103.413 102.6 97.9339 103.155 89.3497C103.726 80.5 108.143 73.7099 116.326 70.2102C122.119 67.7323 127.654 69.6068 132.289 73.7662C135.66 76.7912 137.736 80.7253 139.2 84.9168C139.98 87.1373 141.067 88.5693 143.376 89.2129C155.855 92.6563 161.873 100.758 160.755 115.609C160.61 117.54 160.924 119.012 162.597 120.066L162.541 119.986C162.613 120.645 162.324 121.474 163.361 121.659L163.225 121.595ZM127.847 75.8177C122.537 70.701 113.743 74.0397 111.683 82.5757C116.559 77.6037 121.411 74.619 127.847 75.8177Z" fill="#1E1E1E"/>
<path d="M193.871 201.548C193.445 200.091 194.676 200.043 195.472 199.818C198.441 198.957 201.482 198.531 204.588 198.772C209.158 199.118 211.073 201.097 211.105 205.667C211.145 210.743 211.177 215.828 211.049 220.904C210.84 229.247 203.631 233.463 196.615 229.038C191.634 225.9 186.485 224.01 180.692 223.028C172.509 221.653 171.109 217.027 176.637 210.784C178.399 208.796 180.499 207.091 182.454 205.281C185.093 202.835 187.402 202.296 190.041 205.635C191.385 207.34 193.445 210.816 196.019 208.249C198.763 205.506 195.528 203.342 193.614 201.387C193.614 201.395 193.871 201.548 193.871 201.548Z" fill="#6CBF46"/>
<path d="M259.838 85.4478C254.745 85.5524 249.347 84.4421 244.165 82.632C241.51 81.7068 239.772 82.1412 237.745 83.9031C233.987 87.1775 229.731 89.7037 224.904 91.1357C223.785 91.4656 222.385 92.4793 221.54 91.5058C220.454 90.2588 222.031 89.1083 222.562 87.982C224.839 83.1469 227.181 78.3439 229.53 73.5409C230.157 72.2537 230.318 71.3204 229.136 70.0091C210.936 49.7594 217.308 21.4726 242.291 11.5529C249.749 8.59223 257.537 7.24869 265.535 8.43938C282.696 10.9897 294.339 23.9424 296.213 42.1647C296.849 48.3515 296.76 54.4899 295.079 60.4997C290.75 75.9142 277.169 85.6248 259.838 85.4478ZM223.954 89.8002C226.328 88.6417 227.889 87.9498 229.377 87.1292C232.442 85.4558 235.25 83.3802 237.729 80.9264C239.314 79.3495 240.786 78.7944 243.031 79.7035C247.134 81.3608 251.519 82.0205 255.912 82.5756C275.89 85.0857 292.198 71.779 293.647 51.7465C293.936 47.7159 293.59 43.7255 292.874 39.7592C290.163 24.6906 280.822 14.0147 267.361 11.7057C254.649 9.51743 242.789 12.293 232.652 20.475C218.354 32.0198 217.526 55.93 230.874 68.6253C232.563 70.2344 232.821 71.5216 231.863 73.4605C229.337 78.5933 226.875 83.7583 223.954 89.8002Z" fill="#2A2A2A"/>
<path d="M84.7783 294.719C85.8484 295.475 86.9266 296.231 87.9966 296.988C88.1415 297.784 88.7208 297.848 89.3644 297.816L89.3483 297.8C89.6219 298.613 90.2736 298.685 90.9897 298.629L90.9494 298.605C91.215 299.449 91.8828 299.49 92.5988 299.433L92.5586 299.401C92.808 300.278 93.5241 300.246 94.216 300.23L94.1678 300.198C94.6907 301.187 95.7689 301.163 96.6298 301.541C104.579 304.88 112.753 307.454 121.266 308.911C122.28 309.079 123.076 308.79 123.905 308.347C126.793 310.914 130.494 310.117 133.769 310.359C174.006 313.311 207.364 299.98 232.716 268.033C235.218 264.887 237.463 261.565 239.434 258.049C239.965 257.1 240.086 255.651 241.912 255.555C242.266 257.623 240.955 259.071 240.062 260.527C225.813 283.769 206.213 300.552 179.912 308.452C147.994 318.034 116.897 315.25 87.1599 300.077C75.0027 293.874 65.8144 284.501 60.1904 271.895C59.6836 270.76 58.5813 269.706 59.2571 268.226C60.8824 267.961 60.8985 269.344 61.2927 270.189C63.5777 275.081 66.5788 279.489 70.1753 283.504C71.2292 284.687 72.2108 286.054 74.0614 286.111C75.0188 286.794 74.6407 288.709 76.4107 288.613C76.7326 290.423 78.044 291.099 79.6612 291.404L79.6693 291.412C80.0716 292.563 80.7796 293.263 82.0991 293.045L82.0508 293.013C82.1071 294.952 83.4347 294.856 84.7783 294.719Z" fill="#2A2A2A"/>
<path d="M257.811 258.902C270.95 237.582 273.186 214.235 270.097 190.196C267.063 166.632 261.97 143.647 245.243 123.936C248.204 124.475 249.041 125.891 250.031 126.953C259.887 137.597 264.642 150.718 268.214 164.427C273.387 184.307 275.825 204.388 272.832 224.871C271.11 236.673 266.967 247.606 260.466 257.623C259.999 258.339 259.774 259.489 257.811 258.902Z" fill="#2A2A2A"/>
<path d="M44.6782 145.231C23.5822 186.045 23.9603 227.831 38.1692 270.455C29.2866 251.532 25.0787 231.661 25.3522 210.92C25.658 187.3 30.9682 165.023 44.6782 145.231Z" fill="#2A2A2A"/>
<path d="M58.9675 207.718C58.3399 211.467 57.7124 215.216 57.0928 218.966C55.6848 220.607 55.9182 222.682 55.6768 224.597C54.2285 236.247 54.1883 247.84 57.1331 259.312C57.3342 260.1 57.8652 261.098 56.8595 261.838C44.8552 246.641 57.479 181.37 75.1234 169.327C68.7431 181.724 62.7329 194.259 58.9675 207.718Z" fill="#292929"/>
<path d="M240.834 234.621V234.637C241.936 231.001 241.51 227.316 241.188 223.632C240.569 204.605 235.315 186.664 227.317 168.442C240.665 177.863 249.009 234.412 239.957 250.535C239.515 245.201 241.22 239.939 240.834 234.621Z" fill="#292929"/>
<path d="M127.228 218.097C123.897 218.652 121.346 216.866 118.683 215.329C114.524 212.932 112.327 213.406 109.39 217.212C107.757 219.319 106.615 221.805 104.547 223.583C103.718 224.291 102.785 224.943 101.65 224.452C100.403 223.905 100.661 222.674 100.669 221.645C100.757 210.245 113.067 202.4 123.245 207.284C126.753 208.965 129.086 211.508 128.829 215.715C128.829 216.335 128.765 216.922 128.169 217.284C127.622 217.324 127.172 217.485 127.204 218.161L127.228 218.097ZM102.511 222.715C104.949 220.929 105.995 218.644 107.339 216.624C111.04 211.057 113.108 210.494 119.375 213.068C121.499 213.937 123.326 215.699 125.997 215.651C123.084 211.121 116.181 207.911 111.957 208.973C107.508 210.1 103.123 216.206 102.511 222.715Z" fill="#EFF3F7"/>
<path d="M138.548 246.601C143.062 248.435 146.618 249.835 150.134 251.315C155.863 253.721 160.561 252.264 164.399 247.59C166.894 244.541 169.299 241.411 171.946 238.065C172.445 242.964 165.115 252.602 159.741 254.646C153.932 256.858 142.909 253.029 138.548 246.601Z" fill="#2B2B2B"/>
<path d="M193.871 201.548L193.614 201.395C192.294 202.553 193.646 203.229 194.112 204.058C194.539 204.822 195.561 205.305 195.134 206.721C192.64 206.568 191.562 204.339 189.985 203.028C184.136 198.177 182.02 198.297 177.055 204.066C175.438 205.94 173.966 207.984 171.423 208.981C173.37 204.114 175.728 199.464 180.805 197.179C185.053 195.272 188.15 197.96 191.135 200.582C191.86 201.226 192.35 202.996 193.871 201.548Z" fill="#2B2B2B"/>
<path d="M55.4274 269.183C49.9723 266.368 44.9196 257.22 45.4104 251.114C49.5379 256.979 52.1688 262.78 55.4274 269.183Z" fill="#2A2A2A"/>
<path d="M45.9333 271.364C41.2346 267.14 38.6117 261.854 37.783 255.659C38.1933 255.442 38.6036 255.225 39.022 255.016C41.7495 260.253 44.477 265.499 47.2046 270.736C46.7701 270.945 46.3517 271.154 45.9333 271.364Z" fill="#2B2B2B"/>
<path d="M248.952 255C251.696 250.068 254.094 245.748 256.523 241.452C256.676 241.186 257.175 240.937 257.481 240.969C258.125 241.041 258.197 241.653 258.253 242.184C258.615 245.659 253.555 253.141 248.952 255Z" fill="#2F2F2F"/>
<path d="M118.466 135.714C120.502 134.129 122.489 138.763 124.444 135.368C125.442 133.63 126.488 131.724 129.762 130.404C127.984 134.539 127.493 138.49 123.776 139.664C121.266 140.453 119.19 138.401 118.466 135.714Z" fill="#2F2F2F"/>
<path d="M245.782 250.06C246.161 245.273 247.528 240.872 250.706 237.188C251.616 242.425 249.121 246.399 245.782 250.06Z" fill="#2F2F2F"/>
<path d="M109.342 119.141C108.167 125.995 107.612 132.802 110.919 139.302C110.485 139.286 110.042 139.27 109.608 139.254C105.335 132.794 105.536 126.06 108.385 119.157C108.698 119.149 109.02 119.149 109.342 119.141Z" fill="#DDE5EB"/>
<path d="M241.188 223.632C241.51 227.316 241.936 231.001 240.834 234.638C238.895 231.13 240.118 227.381 240.005 223.736C240.4 223.704 240.794 223.664 241.188 223.632Z" fill="#B2B2B2"/>
<path d="M126.391 125.497C125.273 125.167 125.007 124.209 125.136 123.308C125.289 122.174 125.426 120.71 127.027 120.678C128.354 120.653 128.282 121.844 128.242 122.761C128.177 123.992 127.872 125.143 126.391 125.497Z" fill="#2F2F2F"/>
<path d="M127.196 218.153C127.172 217.477 127.614 217.316 128.161 217.276C128.032 217.783 127.831 218.209 127.196 218.153Z" fill="#6CBF46"/>
<path d="M79.6693 291.404C78.0521 291.09 76.7487 290.423 76.4188 288.613C78.3015 288.613 79.6049 289.296 79.6693 291.404Z" fill="#FDFDFD"/>
<path d="M84.7783 294.719C83.4267 294.856 82.0991 294.952 82.0589 293.013C83.6197 292.547 84.1508 293.713 84.7783 294.719Z" fill="#FDFDFD"/>
<path d="M82.1071 293.045C80.7876 293.263 80.0796 292.563 79.6773 291.412C81.2462 290.825 81.8416 291.694 82.1071 293.045Z" fill="#FDFDFD"/>
<path d="M96.6378 301.541C95.7769 301.171 94.6988 301.187 94.1758 300.198C95.4068 299.9 96.3804 300.061 96.6378 301.541Z" fill="#DDE5EB"/>
<path d="M89.3725 297.816C88.7288 297.848 88.1495 297.784 88.0047 296.988C88.5438 297.124 89.5897 296.432 89.3725 297.816Z" fill="#DDE5EB"/>
<path d="M90.9897 298.629C90.2736 298.693 89.6219 298.621 89.3483 297.8C90.2334 297.414 90.877 297.494 90.9897 298.629Z" fill="#DDE5EB"/>
<path d="M92.6069 299.433C91.8908 299.481 91.223 299.449 90.9575 298.605C91.754 298.379 92.4862 298.299 92.6069 299.433Z" fill="#DDE5EB"/>
<path d="M94.2241 300.23C93.5241 300.246 92.8161 300.278 92.5667 299.401C93.339 299.24 94.1034 299.087 94.2241 300.23Z" fill="#DDE5EB"/>
<path d="M197.242 95.3594C194.096 96.8799 191.296 95.9226 188.513 95.3755C187.901 95.2548 187.169 94.7962 187.386 94.0159C187.491 93.6377 188.134 93.2113 188.569 93.1631C191.586 92.8654 194.555 92.8734 197.242 95.3594Z" fill="#1B2228"/>
<path d="M163.361 121.651C162.324 121.466 162.613 120.629 162.541 119.978C163.852 120.034 163.458 120.919 163.361 121.651Z" fill="#FDFDFD"/>
<path d="M65.1547 120.388C64.2616 120.396 63.5134 120.066 63.7708 119.294C64.4789 117.202 66.2087 116.237 68.2765 115.859C68.9121 115.746 69.8856 115.907 69.5396 116.784C68.7512 118.771 66.965 119.728 65.1547 120.388Z" fill="#1B2228"/>
<path d="M127.847 75.8177C121.403 74.619 116.559 77.5957 111.683 82.5756C113.743 74.0397 122.537 70.701 127.847 75.8177Z" fill="#EFF3F7"/>
<path d="M102.511 222.715C103.123 216.206 107.508 210.1 111.957 208.981C116.181 207.911 123.084 211.13 125.997 215.659C123.326 215.707 121.499 213.945 119.375 213.076C113.108 210.502 111.04 211.065 107.339 216.632C106.003 218.636 104.957 220.929 102.511 222.715Z" fill="#2B2B2B"/>
<path d="M239.812 43.1865C240.005 38.8582 241.108 34.8678 245.179 32.6312C248.993 30.5395 252.476 31.9635 255.469 34.6103C256.902 35.8815 257.666 35.3586 258.704 34.1759C260.876 31.706 263.435 29.8476 266.894 29.6143C273.283 29.1879 277.016 33.0657 276.421 39.4616C275.978 44.2163 273.749 48.1021 270.668 51.5696C267.369 55.2784 263.644 58.5528 259.871 61.7709C258.921 62.5754 257.956 63.3718 256.644 62.6397C250.127 59.0275 244.149 54.8198 240.722 47.8768C239.997 46.4207 239.724 44.8438 239.812 43.1865Z" fill="#FF897D"/>
</svg>
